<svg xmlns="http://www.w3.org/2000/svg" baseProfile="full" width="328.664" height="174.993" viewBox="0 0 328.66 174.99"><path fill="#FFC800" d="M7.404 0h70.333c43.448 0 77.854 39.767 77.854 87.536s-34.406 87.457-77.854 87.457c-2.96 0-5.601-1.761-6.801-4.481L.603 10.482C-1.557 5.6 2.043 0 7.403 0zm11.522 14.963L82.538 159.79c32.086-2.881 58.011-33.526 58.011-72.254 0-40.647-28.566-72.573-62.812-72.573H18.926zM237.767 0a7.46 7.46 0 0 1 6.881 4.48l40.231 91.538h36.343c4.081 0 7.442 3.36 7.442 7.521v64.012a7.428 7.428 0 0 1-7.442 7.442h-83.455c-43.448 0-77.775-39.688-77.775-87.457C159.992 39.767 194.319 0 237.767 0zm-4.721 15.283c-32.086 2.8-58.091 33.526-58.091 72.253 0 40.648 28.645 72.494 62.812 72.494h58.891L233.046 15.283zm80.655 95.698h-22.246l21.557 49.049h.689v-49.049z"/></svg>