<svg xmlns="http://www.w3.org/2000/svg" baseProfile="full" width="128.066" height="128.066" viewBox="0 0 128.07 128.07"><path fill="#7882FF" fill-rule="evenodd" d="M128.066 64.033c0 35.378-28.655 64.033-64.033 64.033S0 99.411 0 64.033 28.655 0 64.033 0s64.033 28.655 64.033 64.033z"/><g stroke-width="3" stroke-linejoin="round" stroke="#3D3D3D"><path fill="#FFF" d="M98.1 54.382c5.34 19.153-5.803 38.885-24.955 44.224-19.036 5.34-38.885-5.919-44.108-24.956-5.34-19.152 5.803-38.884 24.956-44.224 19.036-5.223 38.885 5.92 44.108 24.956z"/><path fill="#4D5CC1" d="M87.538 89.205c-9.054 0-20.08-2.322-31.108-6.5-21.938-8.358-41.554-23.68-36.563-36.796 1.392-3.715 5.92-9.75 20.661-9.75 9.054 0 20.197 2.321 31.108 6.5 21.938 8.241 41.555 23.563 36.563 36.795-1.392 3.599-5.919 9.75-20.66 9.75zm-47.01-41.671c-6.732 0-9.75 1.625-9.982 2.437-.93 2.438 7.893 13.813 29.947 22.17 9.634 3.599 19.5 5.688 27.045 5.688 6.849 0 9.75-1.625 10.099-2.437.928-2.438-8.01-13.813-29.948-22.17-9.634-3.599-19.5-5.688-27.161-5.688z"/><path fill="#FFF" d="M97.52 75.508a34.466 34.466 0 0 0 .58-21.126c-5.222-19.036-25.071-30.18-44.107-24.956-11.027 3.134-19.385 10.911-23.448 20.661"/></g></svg>